<svg xmlns="http://www.w3.org/2000/svg" id="Layer_1" data-name="Layer 1" viewBox="0 0 243.26 40.52"><defs><style>.cls-1{fill:#fff;}</style></defs><path class="cls-1" d="M29.71,13H15.06l-.73,2.57H28.47q6.42,0,4.74,6.42L31.8,27.15q-1.73,6.42-8.15,6.42H0l9.8-7.71H24.45l.69-2.57H11q-6.42,0-4.7-6.42l1.37-5.14Q9.4,5.3,15.82,5.3H39.47Z"></path><path class="cls-1" d="M43.13,23.29,40.36,33.57H32.65l5.86-21.84Q40.24,5.3,46.66,5.3H62.08q6.42,0,4.7,6.43L60.91,33.57h-7.7L56,23.29ZM58,15.58,58.75,13H45.9l-.73,2.57Z"></path><path class="cls-1" d="M78.78,5.3,71.44,32.81l-9.8,7.71L71.07,5.3Z"></path><path class="cls-1" d="M81.35,5.3h30.08L101.67,13H97.3L91.75,33.57H84L89.58,13H79.31Z"></path><path class="cls-1" d="M115.08,23.29l-2.77,10.28H104.6l5.87-21.84q1.73-6.43,8.15-6.43H134q6.42,0,4.69,6.43l-5.86,21.84h-7.71l2.77-10.28ZM130,15.58,130.7,13H117.85l-.72,2.57Z"></path><path class="cls-1" d="M147.25,18.39l-4.1,15.18h-7.71l9-33.57,5.42,7.31,9.63,13.25,4.1-15.26h7.71l-9,33.65-5.43-7.31Z"></path><path class="cls-1" d="M180.3,5.3h15.42q6.42,0,4.69,6.43l-4.13,15.42q-1.72,6.42-8.15,6.42H172.71q-6.44,0-4.7-6.42l4.13-15.42Q173.87,5.3,180.3,5.3ZM179.53,13l-3.45,12.85h12.85L192.38,13Z"></path><path class="cls-1" d="M230.53,14.46a6.36,6.36,0,0,1-5.18,5q3.57.72,2.45,5.13l-.68,2.58c-1.16,4.28-3.87,6.42-8.16,6.42H197.12L204.71,5.3h21.84q6.44,0,4.7,6.43ZM207.6,23.29l-.68,2.57h12.85l.68-2.57Zm14.9-7.71.72-2.57H210.37l-.72,2.57Z"></path><path class="cls-1" d="M243.26,5.3l-7.35,27.51-9.8,7.71L235.55,5.3Z"></path></svg>